<mxfile host="app.diagrams.net" modified="2023-10-05T17:57:15.631Z" agent="Mozilla/5.0 (X11; Linux x86_64; rv:109.0) Gecko/20100101 Firefox/114.0" version="22.0.2" etag="Bavd54NJA8JXQbG8BALY" type="github">
  <diagram name="PÃ¡gina-1" id="uNB5pEVy93Rb7bBBWzrT">
    <mxGraphModel>
      <root>
        <mxCell id="0" />
        <mxCell id="1" parent="0" />
      </root>
    </mxGraphModel>
  </diagram>
</mxfile>
